<svg id="Layer_3" enable-background="new 0 0 64 64" height="512" viewBox="0 0 64 64" width="512" xmlns="http://www.w3.org/2000/svg"><path d="m49 34v-15c0-1.657 1.343-3 3-3 .351 0 .687.06 1 .171v17.37" fill="#db9b7c"/><path d="m49 33.09v-2.09c0-1.105-.895-2-2-2h-.131c-.554 0-1.084.23-1.462.635l-12.331 13.212c-.692.741-1.076 1.716-1.076 2.73v16.423h12v-8.343c0-1.061.421-2.078 1.172-2.828l7.828-7.829 6-11v-17c0-1.657-1.343-3-3-3-1.657 0-3 1.343-3 3v13z" fill="#efbe9a"/><path d="m15 34v-15c0-1.657-1.343-3-3-3-.351 0-.687.06-1 .171v17.37" fill="#db9b7c"/><path d="m15 33.09v-2.09c0-1.105.895-2 2-2h.131c.554 0 1.084.23 1.462.635l12.331 13.212c.692.741 1.076 1.716 1.076 2.73v16.423h-12v-8.343c0-1.061-.421-2.078-1.172-2.828l-7.828-7.829-6-11v-17c0-1.657 1.343-3 3-3 1.657 0 3 1.343 3 3v13z" fill="#efbe9a"/><path d="m43 10h-8v-8h-6v8h-8v6h8v18h6v-18h8z" fill="#c18e59"/><path d="m44 63h-12c-.553 0-1-.448-1-1v-16.423c0-1.271.478-2.482 1.345-3.412l12.331-13.212c.565-.605 1.364-.953 2.193-.953h.131c1.414 0 2.604.984 2.918 2.304l2.082-2.65v-12.654c0-2.206 1.794-4 4-4s4 1.794 4 4v17c0 .167-.042.332-.122.479l-6 11c-.046.083-.104.161-.171.228l-7.828 7.829c-.559.558-.879 1.331-.879 2.121v8.343c0 .552-.447 1-1 1zm-11-2h10v-7.343c0-1.335.521-2.591 1.465-3.535l7.727-7.727 5.808-10.65v-16.745c0-1.103-.897-2-2-2s-2 .897-2 2v13c0 .224-.075.441-.214.618l-11 14-1.572-1.235 6.786-8.638v-1.745c0-.551-.448-1-1-1h-.131c-.276 0-.543.116-.73.317l-12.331 13.212c-.521.558-.808 1.285-.808 2.048z"/><path d="m32 63h-12c-.553 0-1-.448-1-1v-8.343c0-.79-.32-1.562-.879-2.121l-7.828-7.829c-.067-.067-.125-.145-.171-.228l-6-11c-.08-.147-.122-.312-.122-.479v-17c0-2.206 1.794-4 4-4s4 1.794 4 4v12.654l2.082 2.649c.314-1.319 1.504-2.303 2.918-2.303h.131c.829 0 1.628.348 2.193.953l12.331 13.212c.867.929 1.345 2.141 1.345 3.412v16.423c0 .552-.447 1-1 1zm-11-2h10v-15.423c0-.763-.287-1.489-.808-2.047l-12.331-13.213c-.187-.201-.454-.317-.73-.317h-.131c-.552 0-1 .449-1 1v1.745l6.786 8.637-1.572 1.235-11-14c-.139-.176-.214-.393-.214-.617v-13c0-1.103-.897-2-2-2s-2 .897-2 2v16.745l5.809 10.649 7.727 7.727c.944.944 1.465 2.2 1.465 3.535v7.344z"/><path d="m16 31h-2v-12c0-1.103-.897-2-2-2-.229 0-.454.038-.666.113l-.668-1.885c.427-.151.876-.228 1.334-.228 2.206 0 4 1.794 4 4z"/><path d="m50 31h-2v-12c0-2.206 1.794-4 4-4 .458 0 .907.077 1.334.229l-.668 1.885c-.212-.076-.437-.114-.666-.114-1.103 0-2 .897-2 2z"/><path d="m35 35h-6c-.553 0-1-.448-1-1v-17h-7c-.553 0-1-.448-1-1v-6c0-.552.447-1 1-1h7v-7c0-.552.447-1 1-1h6c.553 0 1 .448 1 1v7h7c.553 0 1 .448 1 1v6c0 .552-.447 1-1 1h-7v17c0 .552-.447 1-1 1zm-5-2h4v-17c0-.552.447-1 1-1h7v-4h-7c-.553 0-1-.448-1-1v-7h-4v7c0 .552-.447 1-1 1h-7v4h7c.553 0 1 .448 1 1z"/></svg>